<mxfile host="app.diagrams.net" modified="2022-03-22T12:31:30.223Z" agent="5.0 (Windows NT 10.0; Win64; x64) AppleWebKit/537.36 (KHTML, like Gecko) Chrome/99.0.4844.82 Safari/537.36" etag="d0RymUVb9GK5uR1NO9UK" version="17.1.3" type="github">
  <diagram id="pMdvGQTgfd6tATdUP3s-" name="Page-1">
    <mxGraphModel dx="410" dy="210" grid="0" gridSize="10" guides="1" tooltips="1" connect="1" arrows="1" fold="1" page="1" pageScale="1" pageWidth="827" pageHeight="1169" math="0" shadow="0">
      <root>
        <mxCell id="0" />
        <mxCell id="1" parent="0" />
        <mxCell id="4Lf0XL2MjuKjjBDdzLdH-41" value="Modifer un projet" style="shape=umlFrame;whiteSpace=wrap;html=1;fontSize=16;width=154;height=26;" parent="1" vertex="1">
          <mxGeometry x="163" y="67" width="618" height="446" as="geometry" />
        </mxCell>
        <mxCell id="4Lf0XL2MjuKjjBDdzLdH-1" value="" style="shape=umlLifeline;participant=umlActor;perimeter=lifelinePerimeter;whiteSpace=wrap;html=1;container=1;collapsible=0;recursiveResize=0;verticalAlign=top;spacingTop=36;outlineConnect=0;" parent="1" vertex="1">
          <mxGeometry x="200" y="100" width="20" height="400" as="geometry" />
        </mxCell>
        <mxCell id="4Lf0XL2MjuKjjBDdzLdH-2" value="IHM" style="shape=umlLifeline;perimeter=lifelinePerimeter;whiteSpace=wrap;html=1;container=1;collapsible=0;recursiveResize=0;outlineConnect=0;fillColor=#dae8fc;strokeColor=#6c8ebf;" parent="1" vertex="1">
          <mxGeometry x="315" y="100" width="100" height="400" as="geometry" />
        </mxCell>
        <mxCell id="4Lf0XL2MjuKjjBDdzLdH-10" value="Serveur de base de données" style="shape=umlLifeline;perimeter=lifelinePerimeter;whiteSpace=wrap;html=1;container=1;collapsible=0;recursiveResize=0;outlineConnect=0;fillColor=#dae8fc;strokeColor=#6c8ebf;" parent="1" vertex="1">
          <mxGeometry x="658" y="102" width="100" height="400" as="geometry" />
        </mxCell>
        <mxCell id="4Lf0XL2MjuKjjBDdzLdH-24" value="" style="html=1;points=[];perimeter=orthogonalPerimeter;fillColor=#dae8fc;strokeColor=#6c8ebf;" parent="4Lf0XL2MjuKjjBDdzLdH-10" vertex="1">
          <mxGeometry x="-298.68" y="78" width="10" height="77" as="geometry" />
        </mxCell>
        <mxCell id="4Lf0XL2MjuKjjBDdzLdH-25" value="cliquer sur modifer un projet" style="html=1;verticalAlign=bottom;endArrow=block;entryX=-0.001;entryY=0.167;rounded=0;edgeStyle=orthogonalEdgeStyle;entryDx=0;entryDy=0;entryPerimeter=0;" parent="4Lf0XL2MjuKjjBDdzLdH-10" edge="1">
          <mxGeometry relative="1" as="geometry">
            <mxPoint x="-447.99818181818176" y="90" as="sourcePoint" />
            <Array as="points">
              <mxPoint x="-415.68" y="90" />
              <mxPoint x="-415.68" y="90" />
            </Array>
            <mxPoint x="-297.69" y="89.85899999999992" as="targetPoint" />
          </mxGeometry>
        </mxCell>
        <mxCell id="4Lf0XL2MjuKjjBDdzLdH-26" value="" style="html=1;points=[];perimeter=orthogonalPerimeter;fillColor=#dae8fc;strokeColor=#6c8ebf;" parent="4Lf0XL2MjuKjjBDdzLdH-10" vertex="1">
          <mxGeometry x="-297.68" y="167" width="10" height="91" as="geometry" />
        </mxCell>
        <mxCell id="4Lf0XL2MjuKjjBDdzLdH-27" value="" style="html=1;points=[];perimeter=orthogonalPerimeter;fillColor=#dae8fc;strokeColor=#6c8ebf;" parent="4Lf0XL2MjuKjjBDdzLdH-10" vertex="1">
          <mxGeometry x="44.32000000000005" y="172" width="10" height="84" as="geometry" />
        </mxCell>
        <mxCell id="4Lf0XL2MjuKjjBDdzLdH-28" value="" style="html=1;points=[];perimeter=orthogonalPerimeter;fillColor=#dae8fc;strokeColor=#6c8ebf;" parent="4Lf0XL2MjuKjjBDdzLdH-10" vertex="1">
          <mxGeometry x="-118.67999999999995" y="91" width="10" height="51" as="geometry" />
        </mxCell>
        <mxCell id="4Lf0XL2MjuKjjBDdzLdH-29" value="demander_projet()" style="html=1;verticalAlign=bottom;endArrow=block;rounded=0;entryX=-0.008;entryY=0.167;entryDx=0;entryDy=0;entryPerimeter=0;edgeStyle=orthogonalEdgeStyle;" parent="4Lf0XL2MjuKjjBDdzLdH-10" target="4Lf0XL2MjuKjjBDdzLdH-28" edge="1">
          <mxGeometry width="80" relative="1" as="geometry">
            <mxPoint x="-289.68" y="100" as="sourcePoint" />
            <mxPoint x="-704.68" y="3" as="targetPoint" />
            <Array as="points">
              <mxPoint x="-290.68" y="100" />
              <mxPoint x="-204.68" y="100" />
            </Array>
          </mxGeometry>
        </mxCell>
        <mxCell id="4Lf0XL2MjuKjjBDdzLdH-30" value="Afficher le projet" style="html=1;verticalAlign=bottom;endArrow=open;dashed=1;endSize=8;rounded=0;edgeStyle=orthogonalEdgeStyle;entryX=1.025;entryY=0.726;entryDx=0;entryDy=0;entryPerimeter=0;" parent="4Lf0XL2MjuKjjBDdzLdH-10" target="4Lf0XL2MjuKjjBDdzLdH-24" edge="1">
          <mxGeometry relative="1" as="geometry">
            <mxPoint x="-784.6800000000001" y="31" as="targetPoint" />
            <mxPoint x="-118.67999999999995" y="134" as="sourcePoint" />
            <Array as="points" />
          </mxGeometry>
        </mxCell>
        <mxCell id="4Lf0XL2MjuKjjBDdzLdH-31" value="" style="html=1;points=[];perimeter=orthogonalPerimeter;fillColor=#dae8fc;strokeColor=#6c8ebf;" parent="4Lf0XL2MjuKjjBDdzLdH-10" vertex="1">
          <mxGeometry x="-119.67999999999995" y="289" width="10" height="51" as="geometry" />
        </mxCell>
        <mxCell id="4Lf0XL2MjuKjjBDdzLdH-32" value="Afficher les projets" style="html=1;verticalAlign=bottom;endArrow=open;dashed=1;endSize=8;rounded=0;edgeStyle=orthogonalEdgeStyle;exitX=-0.122;exitY=0.616;exitDx=0;exitDy=0;exitPerimeter=0;" parent="4Lf0XL2MjuKjjBDdzLdH-10" edge="1">
          <mxGeometry relative="1" as="geometry">
            <mxPoint x="-288.68" y="324.4000000000001" as="targetPoint" />
            <mxPoint x="-120.89999999999998" y="324.41599999999994" as="sourcePoint" />
            <Array as="points">
              <mxPoint x="-142.67999999999995" y="324" />
              <mxPoint x="-142.67999999999995" y="324" />
            </Array>
          </mxGeometry>
        </mxCell>
        <mxCell id="4Lf0XL2MjuKjjBDdzLdH-33" value="demander_liste_projets()" style="html=1;verticalAlign=bottom;endArrow=block;rounded=0;entryX=0.045;entryY=0.339;entryDx=0;entryDy=0;entryPerimeter=0;edgeStyle=orthogonalEdgeStyle;" parent="4Lf0XL2MjuKjjBDdzLdH-10" edge="1">
          <mxGeometry width="80" relative="1" as="geometry">
            <mxPoint x="-287.91" y="300.00222222222214" as="sourcePoint" />
            <mxPoint x="-118.45999999999992" y="300.01800000000003" as="targetPoint" />
            <Array as="points">
              <mxPoint x="-219.91000000000003" y="300.78" />
            </Array>
          </mxGeometry>
        </mxCell>
        <mxCell id="4Lf0XL2MjuKjjBDdzLdH-34" value="" style="html=1;points=[];perimeter=orthogonalPerimeter;fillColor=#dae8fc;strokeColor=#6c8ebf;" parent="4Lf0XL2MjuKjjBDdzLdH-10" vertex="1">
          <mxGeometry x="-118.67999999999995" y="189" width="10" height="68" as="geometry" />
        </mxCell>
        <mxCell id="4Lf0XL2MjuKjjBDdzLdH-35" value="envoyer_Informations()" style="html=1;verticalAlign=bottom;endArrow=block;rounded=0;edgeStyle=orthogonalEdgeStyle;" parent="4Lf0XL2MjuKjjBDdzLdH-10" target="4Lf0XL2MjuKjjBDdzLdH-34" edge="1">
          <mxGeometry width="80" relative="1" as="geometry">
            <mxPoint x="-287.68" y="199" as="sourcePoint" />
            <mxPoint x="-138.67999999999995" y="200" as="targetPoint" />
            <Array as="points">
              <mxPoint x="-200.68" y="199" />
              <mxPoint x="-200.68" y="199" />
            </Array>
          </mxGeometry>
        </mxCell>
        <mxCell id="4Lf0XL2MjuKjjBDdzLdH-36" value="afficher un message de succès" style="html=1;verticalAlign=bottom;endArrow=open;dashed=1;endSize=8;rounded=0;edgeStyle=orthogonalEdgeStyle;exitX=-0.112;exitY=0.85;exitDx=0;exitDy=0;exitPerimeter=0;entryX=1.116;entryY=0.843;entryDx=0;entryDy=0;entryPerimeter=0;" parent="4Lf0XL2MjuKjjBDdzLdH-10" target="4Lf0XL2MjuKjjBDdzLdH-26" edge="1">
          <mxGeometry x="-0.0006" y="-6" relative="1" as="geometry">
            <mxPoint x="-272.68" y="243" as="targetPoint" />
            <mxPoint x="-118.79999999999984" y="243.3499999999999" as="sourcePoint" />
            <Array as="points">
              <mxPoint x="-272.68" y="243" />
            </Array>
            <mxPoint as="offset" />
          </mxGeometry>
        </mxCell>
        <mxCell id="4Lf0XL2MjuKjjBDdzLdH-37" value="mise_a_jour_projet()" style="html=1;verticalAlign=bottom;endArrow=block;rounded=0;edgeStyle=orthogonalEdgeStyle;entryX=0.063;entryY=0.351;entryDx=0;entryDy=0;entryPerimeter=0;" parent="4Lf0XL2MjuKjjBDdzLdH-10" target="4Lf0XL2MjuKjjBDdzLdH-27" edge="1">
          <mxGeometry width="80" relative="1" as="geometry">
            <mxPoint x="-108.67999999999995" y="201" as="sourcePoint" />
            <mxPoint x="35.94999999999993" y="200.885" as="targetPoint" />
            <Array as="points" />
          </mxGeometry>
        </mxCell>
        <mxCell id="4Lf0XL2MjuKjjBDdzLdH-38" value="faire une modification" style="html=1;verticalAlign=bottom;endArrow=block;rounded=0;edgeStyle=orthogonalEdgeStyle;entryX=0.009;entryY=0.143;entryDx=0;entryDy=0;entryPerimeter=0;" parent="4Lf0XL2MjuKjjBDdzLdH-10" target="4Lf0XL2MjuKjjBDdzLdH-26" edge="1">
          <mxGeometry relative="1" as="geometry">
            <mxPoint x="-446.6799999999999" y="180" as="sourcePoint" />
            <Array as="points" />
            <mxPoint x="-300.68" y="180" as="targetPoint" />
          </mxGeometry>
        </mxCell>
        <mxCell id="4Lf0XL2MjuKjjBDdzLdH-39" value="" style="html=1;points=[];perimeter=orthogonalPerimeter;fillColor=#dae8fc;strokeColor=#6c8ebf;" parent="4Lf0XL2MjuKjjBDdzLdH-10" vertex="1">
          <mxGeometry x="-297.68" y="270" width="10" height="75" as="geometry" />
        </mxCell>
        <mxCell id="4Lf0XL2MjuKjjBDdzLdH-40" value="cliquer sur annuler" style="html=1;verticalAlign=bottom;endArrow=block;rounded=0;edgeStyle=orthogonalEdgeStyle;" parent="4Lf0XL2MjuKjjBDdzLdH-10" edge="1">
          <mxGeometry relative="1" as="geometry">
            <mxPoint x="-445.68" y="283" as="sourcePoint" />
            <Array as="points" />
            <mxPoint x="-297.68" y="283" as="targetPoint" />
          </mxGeometry>
        </mxCell>
        <mxCell id="4Lf0XL2MjuKjjBDdzLdH-13" value="Serveur d&#39;application" style="shape=umlLifeline;perimeter=lifelinePerimeter;whiteSpace=wrap;html=1;container=1;collapsible=0;recursiveResize=0;outlineConnect=0;fillColor=#dae8fc;strokeColor=#6c8ebf;" parent="1" vertex="1">
          <mxGeometry x="494" y="102" width="100" height="400" as="geometry" />
        </mxCell>
        <mxCell id="pmTZaFTn_fpE20iw30D7-1" value="Acteur" style="text;html=1;strokeColor=none;fillColor=none;align=center;verticalAlign=middle;whiteSpace=wrap;rounded=0;" vertex="1" parent="1">
          <mxGeometry x="182" y="129" width="60" height="30" as="geometry" />
        </mxCell>
      </root>
    </mxGraphModel>
  </diagram>
</mxfile>
